<svg width="397" height="397" viewBox="0 0 397 397" fill="none" xmlns="http://www.w3.org/2000/svg">
<g clip-path="url(#clip0_94_1836)">
<path d="M53.7397 198.28C53.7397 275.038 115.964 337.262 192.721 337.262C269.479 337.262 331.703 275.038 331.703 198.28C331.703 121.523 269.479 59.2988 192.721 59.2988C115.964 59.2988 53.7397 121.523 53.7397 198.28ZM303.907 198.28C303.907 259.686 254.127 309.466 192.721 309.466C131.315 309.466 81.536 259.686 81.536 198.28C81.536 136.874 131.315 87.0951 192.721 87.0951C254.127 87.0951 303.907 136.874 303.907 198.28Z" fill="#FFF0E1"/>
<mask id="mask0_94_1836" style="mask-type:alpha" maskUnits="userSpaceOnUse" x="192" y="59" width="140" height="279">
<path d="M192.721 59.2988C229.582 59.2988 264.932 73.9415 290.996 100.006C317.06 126.07 331.703 161.42 331.703 198.28C331.703 235.141 317.06 270.491 290.996 296.555C264.932 322.619 229.582 337.262 192.721 337.262L192.721 309.466C222.209 309.466 250.49 297.752 271.341 276.9C292.192 256.049 303.907 227.769 303.907 198.28C303.907 168.792 292.192 140.512 271.341 119.661C250.49 98.8093 222.209 87.0951 192.721 87.0951V59.2988Z" fill="#FF4086"/>
</mask>
<g mask="url(#mask0_94_1836)">
</g>
<mask id="mask1_94_1836" style="mask-type:alpha" maskUnits="userSpaceOnUse" x="53" y="59" width="140" height="279">
<path d="M192.721 337.262C155.861 337.262 120.51 322.619 94.4463 296.555C68.3822 270.491 53.7395 235.14 53.7395 198.28C53.7395 161.42 68.3822 126.069 94.4463 100.005C120.51 73.9412 155.861 59.2986 192.721 59.2986L192.721 87.0949C163.233 87.0949 134.953 98.809 114.101 119.66C93.25 140.512 81.5358 168.792 81.5358 198.28C81.5358 227.768 93.25 256.049 114.101 276.9C134.953 297.751 163.233 309.465 192.721 309.465L192.721 337.262Z" fill="#FF4086"/>
</mask>
<g mask="url(#mask1_94_1836)">
</g>
</g>
<path d="M191.284 195.748V201.221C191.284 203.595 191.031 205.643 190.524 207.366C190.018 209.074 189.287 210.479 188.331 211.579C187.39 212.665 186.268 213.468 184.965 213.989C183.662 214.511 182.214 214.771 180.622 214.771C179.348 214.771 178.161 214.612 177.061 214.293C175.96 213.961 174.969 213.447 174.085 212.752C173.217 212.057 172.464 211.181 171.827 210.124C171.204 209.053 170.727 207.779 170.394 206.302C170.061 204.825 169.894 203.132 169.894 201.221V195.748C169.894 193.374 170.148 191.34 170.654 189.646C171.176 187.938 171.907 186.541 172.848 185.455C173.803 184.369 174.932 183.573 176.235 183.066C177.538 182.545 178.986 182.284 180.579 182.284C181.853 182.284 183.032 182.451 184.118 182.784C185.218 183.102 186.21 183.602 187.093 184.282C187.976 184.963 188.729 185.838 189.352 186.91C189.974 187.967 190.452 189.233 190.785 190.71C191.118 192.172 191.284 193.852 191.284 195.748ZM185.009 202.046V194.901C185.009 193.758 184.943 192.759 184.813 191.904C184.697 191.05 184.516 190.326 184.27 189.733C184.024 189.125 183.72 188.633 183.358 188.256C182.996 187.88 182.584 187.605 182.12 187.431C181.657 187.257 181.143 187.17 180.579 187.17C179.869 187.17 179.239 187.308 178.689 187.583C178.154 187.858 177.698 188.3 177.321 188.908C176.945 189.501 176.655 190.297 176.453 191.296C176.264 192.281 176.17 193.482 176.17 194.901V202.046C176.17 203.189 176.228 204.196 176.344 205.064C176.474 205.933 176.662 206.678 176.909 207.301C177.169 207.909 177.473 208.408 177.821 208.799C178.183 209.176 178.595 209.451 179.058 209.625C179.536 209.798 180.057 209.885 180.622 209.885C181.317 209.885 181.932 209.748 182.468 209.473C183.018 209.183 183.481 208.734 183.858 208.126C184.248 207.504 184.538 206.693 184.726 205.694C184.914 204.695 185.009 203.479 185.009 202.046Z" fill="#FFF0E1"/>
<path d="M199.622 190.471V188.799C199.622 187.597 199.883 186.504 200.404 185.52C200.925 184.535 201.692 183.746 202.706 183.153C203.719 182.559 204.964 182.263 206.441 182.263C207.961 182.263 209.228 182.559 210.241 183.153C211.269 183.746 212.036 184.535 212.543 185.52C213.064 186.504 213.325 187.597 213.325 188.799V190.471C213.325 191.644 213.064 192.722 212.543 193.707C212.036 194.691 211.276 195.48 210.263 196.074C209.249 196.667 207.99 196.964 206.484 196.964C204.993 196.964 203.734 196.667 202.706 196.074C201.692 195.48 200.925 194.691 200.404 193.707C199.883 192.722 199.622 191.644 199.622 190.471ZM203.77 188.799V190.471C203.77 190.978 203.864 191.463 204.052 191.926C204.255 192.375 204.559 192.744 204.964 193.034C205.384 193.309 205.891 193.446 206.484 193.446C207.107 193.446 207.614 193.309 208.004 193.034C208.395 192.744 208.685 192.375 208.873 191.926C209.061 191.463 209.155 190.978 209.155 190.471V188.799C209.155 188.263 209.054 187.771 208.851 187.322C208.663 186.859 208.366 186.49 207.961 186.215C207.57 185.925 207.063 185.781 206.441 185.781C205.862 185.781 205.37 185.925 204.964 186.215C204.559 186.49 204.255 186.859 204.052 187.322C203.864 187.771 203.77 188.263 203.77 188.799ZM214.736 208.256V206.584C214.736 205.397 214.997 204.311 215.518 203.327C216.054 202.343 216.828 201.554 217.842 200.96C218.87 200.366 220.129 200.07 221.62 200.07C223.126 200.07 224.385 200.366 225.399 200.96C226.412 201.554 227.18 202.343 227.701 203.327C228.222 204.311 228.482 205.397 228.482 206.584V208.256C228.482 209.444 228.222 210.529 227.701 211.514C227.194 212.498 226.434 213.287 225.421 213.881C224.407 214.474 223.155 214.771 221.664 214.771C220.158 214.771 218.891 214.474 217.863 213.881C216.836 213.287 216.054 212.498 215.518 211.514C214.997 210.529 214.736 209.444 214.736 208.256ZM218.906 206.584V208.256C218.906 208.778 219.022 209.27 219.253 209.733C219.485 210.196 219.803 210.566 220.209 210.841C220.629 211.116 221.114 211.253 221.664 211.253C222.359 211.253 222.901 211.116 223.292 210.841C223.683 210.566 223.951 210.196 224.096 209.733C224.255 209.27 224.335 208.778 224.335 208.256V206.584C224.335 206.063 224.233 205.578 224.031 205.129C223.828 204.666 223.524 204.297 223.119 204.022C222.728 203.732 222.228 203.588 221.62 203.588C221.012 203.588 220.506 203.732 220.1 204.022C219.709 204.297 219.412 204.666 219.21 205.129C219.007 205.578 218.906 206.063 218.906 206.584ZM223.162 187.236L207.722 211.948L204.682 210.341L220.122 185.629L223.162 187.236Z" fill="#FFF0E1"/>
<defs>
<clipPath id="clip0_94_1836">
<rect width="277.963" height="277.963" fill="white" transform="translate(53.7395 59.2988)"/>
</clipPath>
</defs>
</svg>
