<svg width="918" height="96" viewBox="0 0 918 96" fill="none" xmlns="http://www.w3.org/2000/svg">
<path d="M65.0996 19.3311C67.4681 19.4007 69.1748 19.2266 70.2197 18.8086C71.1253 19.2266 73.041 19.5749 75.9668 19.8535C78.4049 20.1322 80.251 20.8984 81.5049 22.1523L80.042 25.3916C76.2803 27.3421 69.9411 29.0488 61.0244 30.5117C50.7145 32.2533 44.0618 33.6465 41.0664 34.6914L42.7383 35.2139L43.8877 34.9004C44.0967 35.388 45.2809 36.2936 47.4404 37.6172C49.5999 38.8711 51.028 39.9508 51.7246 40.8564L51.5156 42.4238C50.61 42.8418 50.1572 43.6081 50.1572 44.7227C50.1572 45.1406 50.2269 45.6283 50.3662 46.1855L54.9639 45.1406C55.0335 45.1406 56.1829 45.2451 58.4121 45.4541C62.5918 45.9417 65.5872 47.0215 67.3984 48.6934L67.085 51.0967C65.9007 52.8382 63.2884 54.127 59.248 54.9629C54.3021 55.9382 51.3415 56.7044 50.3662 57.2617L49.3213 70.5322C49.4606 70.8109 49.5303 71.1243 49.5303 71.4727C49.5303 71.821 49.3561 72.3434 49.0078 73.04C48.6595 73.667 48.4854 74.1198 48.4854 74.3984C48.4854 74.5378 48.555 74.7119 48.6943 74.9209L68.8613 73.458C69.0703 73.04 69.6973 72.7962 70.7422 72.7266C71.4388 72.6569 72.1702 72.5872 72.9365 72.5176C75.4443 73.0052 78.4398 74.0153 81.9229 75.5479C84.779 76.9411 87.6351 78.2995 90.4912 79.623C90.5609 80.1107 91.2575 80.9466 92.5811 82.1309C93.9046 83.3151 94.5664 84.5342 94.5664 85.7881C94.2181 86.6937 93.5215 87.5993 92.4766 88.5049C91.362 89.6195 90.3867 90.0374 89.5508 89.7588L83.4902 87.8779L81.6094 88.1914C79.9375 87.8431 76.3848 86.6589 70.9512 84.6387C66.3535 82.8275 62.9053 81.9219 60.6064 81.9219C54.5459 81.9219 50.4359 82.0612 48.2764 82.3398C30.7913 84.0117 18.9141 88.1566 12.6445 94.7744L5.0166 90.3857C4.73796 89.6891 3.97168 88.888 2.71777 87.9824C1.46387 87.0768 0.836914 86.2409 0.836914 85.4746C4.18066 85.4746 10.9727 83.9769 21.2129 80.9814C28.806 78.7523 35.2497 77.0456 40.5439 75.8613V60.1875C39.29 59.8392 38.6631 59.665 38.6631 59.665C38.6631 59.665 36.4688 59.8044 32.0801 60.083C31.3138 59.665 29.1543 59.0381 25.6016 58.2021C22.7454 57.5055 20.7601 56.4606 19.6455 55.0674C20.9691 55.2067 21.6309 55.2764 21.6309 55.2764C26.9948 55.2764 33.4036 53.9528 40.8574 51.3057C40.9271 50.1214 40.9619 49.0068 40.9619 47.9619C40.9619 42.598 39.5687 38.8363 36.7822 36.6768C37.3395 36.6071 37.862 36.2588 38.3496 35.6318C38.9069 35.0049 39.3249 34.6566 39.6035 34.5869C37.7923 34.7262 35.0755 35.0745 31.4531 35.6318C28.5273 36.2588 26.4027 36.5723 25.0791 36.5723C22.9196 36.5723 20.7949 35.7712 18.7051 34.1689C18.0781 33.6813 16.4062 32.1139 13.6895 29.4668L18.0781 29.8848C19.332 29.4668 21.0387 29.1533 23.1982 28.9443C26.1937 28.7354 27.9701 28.5612 28.5273 28.4219C37.9316 26.959 44.3753 25.8444 47.8584 25.0781C57.1234 23.1973 62.8704 21.2816 65.0996 19.3311ZM42.9473 3.44824C43.5046 4.35384 45.6989 6.2347 49.5303 9.09082C52.3167 11.1807 53.6403 13.5492 53.501 16.1963V17.1367C51.9684 18.5996 50.2269 19.3311 48.2764 19.3311C44.7933 19.3311 41.2057 17.2064 37.5137 12.957C33.9609 8.98633 31.9756 5.15495 31.5576 1.46289C31.9059 1.25391 32.2542 1.14941 32.6025 1.14941C32.6722 1.14941 33.9958 1.74154 36.5732 2.92578C37.0609 3.20443 39.1855 3.37858 42.9473 3.44824ZM134.654 4.28418L144.999 8.56836C145.347 10.3099 145.521 11.1807 145.521 11.1807C145.521 11.1807 145.486 12.7132 145.416 15.7783L142.177 17.6592C140.505 22.1872 139.321 25.6354 138.624 28.0039C137.162 32.6712 136.326 36.1891 136.117 38.5576C136.535 38.8363 137.58 40.125 139.251 42.4238C141.132 50.1562 144.79 56.8089 150.223 62.3818C153.706 66.0042 159.314 70.1491 167.046 74.8164C175.963 80.25 182.128 84.36 185.541 87.1465L184.915 88.7139C185.263 89.0622 185.437 89.4105 185.437 89.7588C185.437 90.0374 185.263 90.4206 184.915 90.9082L180.735 92.0576C179.62 91.8486 178.506 91.6396 177.391 91.4307C176.068 91.152 175.057 90.6644 174.361 89.9678L172.898 90.3857C169.624 89.4801 166.628 88.4352 163.912 87.251C163.842 87.251 161.473 85.8926 156.806 83.1758C152.835 80.877 148.064 75.7917 142.491 67.9199C138.311 61.929 135.35 55.764 133.609 49.4248C132.773 50.4001 131.101 53.8483 128.593 59.7695C126.712 64.0885 123.856 68.4772 120.025 72.9355C115.497 78.0905 111.491 81.3994 108.008 82.8623C106.127 83.4196 104.316 84.0117 102.575 84.6387C100.415 85.3353 98.7781 86.2409 97.6636 87.3555L94.6333 86.9375C105.918 79.9017 114.626 69.139 120.756 54.6494C125.145 44.2002 128.663 30.4769 131.31 13.4795C129.081 12.8525 127.966 11.4593 127.966 9.2998C127.966 8.9515 128.001 8.63802 128.071 8.35938C128.698 7.31445 130.892 5.95605 134.654 4.28418ZM237.228 4.17969C237.715 4.24935 238.621 4.80664 239.944 5.85156C241.338 6.89648 242.487 7.48861 243.393 7.62793C246.388 12.5042 250.463 16.6143 255.618 19.958C257.081 21.0029 261.853 23.5804 269.934 27.6904C275.785 30.7555 280.278 33.8555 283.413 36.9902L283.831 38.9756C282.925 40.2992 281.637 40.9609 279.965 40.9609C279.756 40.9609 277.144 40.8216 272.128 40.543C268.297 40.2643 265.928 40.2643 265.022 40.543C255.409 34.6914 246.98 24.904 239.735 11.1807C238.203 10.8324 237.262 10.6234 236.914 10.5537C235.869 10.1357 235.277 9.54362 235.138 8.77734L237.228 4.17969ZM210.478 7.41895C210.617 7.41895 212.254 7.73242 215.389 8.35938C218.523 8.98633 220.404 9.33464 221.031 9.4043L223.226 12.2256L222.703 15.6738C222.355 16.0221 221.484 16.3356 220.091 16.6143C218.767 16.8929 217.862 17.3805 217.374 18.0771C217.026 19.1917 216.434 20.7243 215.598 22.6748C214.065 25.8096 211.488 30.3724 207.865 36.3633C207.447 36.9902 206.925 37.3734 206.298 37.5127C203.72 41.4137 199.332 44.1305 193.132 45.6631C190.276 45.0361 187.663 44.0957 185.295 42.8418C191.216 39.9857 196.232 36.224 200.342 31.5566C204.939 26.2624 207.587 20.6546 208.283 14.7334L205.253 10.9717L207.238 8.0459L210.478 7.41895ZM222.703 33.542C227.092 34.6566 229.495 35.2835 229.913 35.4229C232.7 36.3981 234.615 37.861 235.66 39.8115C235.451 42.18 234.511 43.2946 232.839 43.1553C231.794 45.3148 229.356 50.5742 225.524 58.9336C225.037 59.6999 224.514 60.6403 223.957 61.7549L222.599 66.5615C231.446 63.9144 238.69 62.2773 244.333 61.6504C243.358 59.4212 242.034 55.973 240.362 51.3057C250.951 53.6045 257.882 58.7943 261.156 66.875C262.48 70.2188 263.142 73.2839 263.142 76.0703C263.142 76.0703 262.793 78.7871 262.097 84.2207C258.335 83.7331 255.096 81.5736 252.379 77.7422C250.359 74.1198 248.304 70.5671 246.214 67.084C244.403 67.502 241.651 68.1986 237.959 69.1738C236.287 69.9401 233.744 70.9502 230.331 72.2041C228.938 72.7614 226.36 73.6322 222.599 74.8164C220.369 75.8613 217.235 77.3242 213.194 79.2051C211.662 79.7624 209.502 80.668 206.716 81.9219C203.86 83.5241 202.432 85.4049 202.432 87.5645L201.387 88.6094H198.356C198.217 88.3307 197.695 87.6689 196.789 86.624C196.023 85.7881 195.64 85.0915 195.64 84.5342C195.64 84.2555 195.779 83.9769 196.058 83.6982L193.654 80.5635L194.49 78.3691L194.072 76.0703L195.64 72.6221L198.043 75.5479C201.526 74.8512 204.905 73.7018 208.179 72.0996C214.309 63.6706 219.116 53.291 222.599 40.9609L219.255 37.4082V34.6914L222.703 33.542ZM327.262 21.0029C330.885 23.0231 336.179 26.2275 343.145 30.6162C346.767 33.2633 350.39 37.3037 354.012 42.7373C357.635 48.1012 360.073 53.0472 361.327 57.5752C361.954 59.4561 362.789 62.7998 363.834 67.6064C364.879 72.6917 365.402 75.5479 365.402 76.1748C365.402 77.9163 364.879 79.623 363.834 81.2949C362.72 83.1061 361.292 84.0117 359.55 84.0117C359.063 84.0117 357.809 83.5589 355.789 82.6533L343.563 49.2158C342.379 46.0811 339.801 41.4486 335.831 35.3184C331.303 28.3522 328.446 23.5804 327.262 21.0029ZM301.975 25.9141C305.319 26.332 309.289 27.0286 313.887 28.0039C315.28 28.5612 316.081 29.6061 316.29 31.1387C316.012 32.4622 315.42 33.9251 314.514 35.5273C313.678 37.0599 313.156 38.2093 312.947 38.9756C312.738 39.7419 312.111 42.598 311.066 47.5439C310.648 49.0068 309.777 52.0719 308.454 56.7393C302.95 74.5029 294.73 84.7083 283.793 87.3555L279.927 86.415C286.057 80.0062 291.003 72.3783 294.765 63.5312C296.367 59.8392 297.935 55.3112 299.467 49.9473C301.348 43.6777 302.289 39.0801 302.289 36.1543C302.289 36.1543 302.149 35.179 301.871 33.2285C301.035 32.8105 300.234 32.4274 299.467 32.0791C298.492 31.5915 298.004 30.9993 298.004 30.3027C298.004 30.3027 298.039 30.1286 298.109 29.7803L301.975 25.9141ZM413.535 4.49316C418.481 4.49316 422.626 6.47852 425.97 10.4492L425.343 12.748L423.775 14.2109C423.427 14.5592 423.009 15.5345 422.521 17.1367C422.103 18.6693 421.999 19.6445 422.208 20.0625C422.138 24.7298 421.964 31.7656 421.685 41.1699C421.616 42.1452 421.442 43.9912 421.163 46.708C420.954 49.0068 420.85 50.8529 420.85 52.2461C420.85 52.2461 421.128 54.0573 421.685 57.6797L420.85 59.874C421.407 63.1481 421.685 64.7852 421.685 64.7852C421.685 65.4121 421.546 66.3177 421.268 67.502C420.989 68.6862 420.85 69.5918 420.85 70.2188C420.85 70.9154 421.233 71.5075 421.999 71.9951C425.412 69.9053 430.393 65.7604 436.941 59.5605C437.986 58.8639 439.449 57.7842 441.33 56.3213C444.674 52.6989 448.018 49.1113 451.361 45.5586C456.586 39.8464 459.407 36.2588 459.825 34.7959V35.6318C459.895 36.8161 459.477 38.5228 458.571 40.752C457.735 42.9115 457.422 44.7227 457.631 46.1855C454.078 53.0124 450.073 59.0729 445.614 64.3672C444.012 65.9694 441.643 68.3379 438.509 71.4727C436.628 73.8411 433.458 77.1849 429 81.5039C428.582 82.5488 427.781 83.5241 426.597 84.4297C424.855 85.8926 423.88 86.7285 423.671 86.9375C421.999 88.7487 420.501 90.4206 419.178 91.9531L416.043 92.5801C415.625 91.3262 414.51 89.2015 412.699 86.2061C410.958 83.5589 409.982 81.5736 409.773 80.25C411.097 77.2546 411.863 70.7412 412.072 60.71C412.072 60.1527 412.177 59.3167 412.386 58.2021C412.595 57.0179 412.699 56.1123 412.699 55.4854C412.699 54.8584 412.629 53.8831 412.49 52.5596C412.421 51.1663 412.386 50.1214 412.386 49.4248L412.699 15.1514C412.699 15.1514 412.595 14.3503 412.386 12.748L406.743 10.8672L409.251 5.22461C412.107 4.73698 413.535 4.49316 413.535 4.49316ZM391.069 17.4502L398.802 18.4951L401.727 21.3164L401.31 24.3467L398.906 26.2275L395.876 44.9316C395.319 46.7428 394.518 49.3551 393.473 52.7686C391.104 61.4066 389.014 67.6761 387.203 71.5771C383.372 79.6579 378.983 83.6982 374.037 83.6982C373.41 83.6982 372.748 83.6286 372.052 83.4893C375.326 79.4489 377.694 75.0602 379.157 70.3232C382.222 60.2223 384.835 44.7923 386.994 24.0332L381.352 21.9434L381.665 19.8535C382.431 18.8086 383.894 18.1816 386.054 17.9727C387.656 17.7637 389.328 17.5895 391.069 17.4502ZM480.163 8.77734C481.696 8.77734 483.786 9.33464 486.433 10.4492C489.846 11.9818 492.494 14.4199 494.374 17.7637C495.35 19.5749 496.569 22.8838 498.032 27.6904C499.425 32.2184 500.853 35.5622 502.316 37.7217C504.266 37.7217 507.819 35.0397 512.974 29.6758C517.92 24.5208 520.672 20.9333 521.229 18.9131L519.662 15.5693C519.94 15.5693 520.567 15.4648 521.542 15.2559C522.378 15.1862 523.04 15.1514 523.528 15.1514C525.478 15.1514 527.882 16.7884 530.738 20.0625C533.594 23.3366 534.987 25.9837 534.917 28.0039V28.7354C533.037 29.7106 530.389 31.3128 526.976 33.542C523.493 36.6768 518.233 41.0654 511.198 46.708C510.013 47.4046 508.342 48.4147 506.182 49.7383C505.346 50.2259 504.301 51.236 503.047 52.7686C501.933 54.0225 500.748 54.9281 499.495 55.4854C492.459 62.4515 488.941 67.7458 488.941 71.3682C488.941 75.3389 493.19 77.3242 501.689 77.3242C505.729 77.3242 510.675 76.5579 516.527 75.0254C525.792 72.4479 530.633 71.1243 531.051 71.0547C533.071 71.821 535.057 72.5524 537.007 73.249C539.167 74.1546 540.63 75.513 541.396 77.3242C541.396 78.9961 540.699 80.2848 539.306 81.1904C537.982 82.096 535.126 83.2454 530.738 84.6387C526.697 86.1016 523.737 87.0072 521.856 87.3555C518.303 88.0521 513.845 88.4004 508.481 88.4004C501.654 88.4004 495.768 87.2161 490.822 84.8477C484.274 81.8522 480.999 77.359 480.999 71.3682C480.999 66.8402 482.741 62.0335 486.224 56.9482C489.289 52.6989 492.354 48.4495 495.419 44.2002C493.608 40.8564 491.971 37.7217 490.508 34.7959C488.558 30.0589 486.572 25.3568 484.552 20.6895C481.766 14.6986 478.701 11.111 475.357 9.92676C475.566 9.16048 477.168 8.77734 480.163 8.77734ZM609.383 11.2852C618.578 11.2852 626.624 15.3255 633.52 23.4062C640.069 31.1387 643.343 39.7419 643.343 49.2158C643.343 56.2516 642.019 62.6605 639.372 68.4424C636.377 74.6423 632.057 79.4141 626.415 82.7578C621.608 85.6836 617.254 87.1813 613.353 87.251L604.263 87.46C613.11 80.1455 619.449 73.9456 623.28 68.8604C629.201 61.0583 632.162 52.9427 632.162 44.5137C632.162 42.0059 631.465 39.1846 630.072 36.0498C628.888 33.0544 627.39 30.5465 625.579 28.5264C621.33 23.5804 615.652 21.1074 608.547 21.1074C604.715 21.1074 600.849 21.9782 596.948 23.7197C597.018 25.113 597.053 26.4714 597.053 27.7949C597.053 39.1497 594.545 50.1562 589.529 60.8145C584.026 72.4479 576.711 80.668 567.586 85.4746C566.611 84.8477 565.879 83.9769 565.391 82.8623C565.252 82.0264 564.939 80.8073 564.451 79.2051C563.685 77.7422 562.605 75.6175 561.212 72.8311C560.724 71.4378 559.819 69.4176 558.495 66.7705C558.007 61.1976 557.764 55.1719 557.764 48.6934C557.764 45.071 559.61 41.0654 563.302 36.6768C563.441 36.4678 566.611 33.124 572.81 26.6455C577.269 22.1872 582.006 18.8086 587.021 16.5098C594.405 13.0267 601.859 11.2852 609.383 11.2852ZM566.75 70.6367C569.885 69.2435 572.741 67.1188 575.318 64.2627C578.453 60.5706 581.379 56.2865 584.096 51.4102C587.439 45.4193 589.111 40.6126 589.111 36.9902C589.111 37.1992 588.798 33.96 588.171 27.2725C582.18 29.7106 576.711 33.2982 571.766 38.0352C565.705 43.8171 562.675 49.4248 562.675 54.8584C562.675 62.7301 564.033 67.9896 566.75 70.6367ZM688.864 1.14941C689.421 1.63704 691.615 2.89095 695.447 4.91113C698.024 6.2347 699.8 8.11556 700.776 10.5537C699.87 11.0413 698.616 11.8424 697.014 12.957C696.596 13.375 696.108 16.3008 695.551 21.7344C695.064 26.541 694.82 29.8151 694.82 31.5566C694.82 32.8802 694.924 34.1689 695.133 35.4229L704.537 34.3779C704.677 34.3779 704.955 34.3431 705.373 34.2734C705.861 34.1341 706.244 34.0645 706.523 34.0645C707.637 34.0645 708.926 34.3431 710.389 34.9004C712.827 35.806 714.081 36.2588 714.151 36.2588C714.778 34.9352 715.091 32.7061 715.091 29.5713C715.091 26.5758 714.046 24.0332 711.956 21.9434L715.3 20.4805C717.599 21.1074 719.863 21.7692 722.092 22.4658C724.67 23.3018 726.202 24.8691 726.69 27.168C725.088 27.8646 724.286 30.5814 724.286 35.3184C724.286 35.7363 723.834 37.3385 722.928 40.125C722.023 42.9115 721.43 44.5137 721.152 44.9316C721.152 46.1855 720.699 47.2653 719.793 48.1709L716.972 49.2158L714.569 47.335L713.837 43.8867C713.21 43.2598 712.549 42.9463 711.852 42.9463C703.144 42.9463 697.397 43.7474 694.611 45.3496C694.611 61.3717 694.297 70.1839 693.67 71.7861H694.402C695.725 71.8558 697.745 71.6468 700.462 71.1592C703.179 70.6715 705.199 70.4277 706.523 70.4277C710.215 70.4277 714.464 70.8109 719.271 71.5771L720.107 70.0098C719.898 68.2682 719.41 65.7952 718.644 62.5908C718.365 61.9639 717.703 60.9538 716.659 59.5605C715.753 58.3763 715.231 57.3662 715.091 56.5303L719.689 56.1123C720.525 56.5999 721.674 57.0179 723.137 57.3662C725.227 57.7842 726.481 58.0628 726.899 58.2021C728.571 58.7594 729.894 60.1527 730.87 62.3818C731.566 64.193 732.298 66.0391 733.064 67.9199C731.81 68.6862 731.044 69.9749 730.765 71.7861C730.626 72.2738 730.556 73.8063 730.556 76.3838C730.556 82.3747 728.814 87.4948 725.331 91.7441L723.346 92.8936C721.535 92.4059 720.037 91.2913 718.853 89.5498C717.738 87.8779 717.181 86.0319 717.181 84.0117C717.181 84.0117 717.46 82.6533 718.017 79.9365C717.39 79.2399 715.683 78.8916 712.897 78.8916C712.131 78.8916 710.981 78.8916 709.449 78.8916C707.916 78.8916 706.732 78.8916 705.896 78.8916C701.298 78.8916 694.088 80.25 684.266 82.9668C674.444 85.6836 667.721 88.2611 664.099 90.6992C662.357 91.7441 660.999 93.207 660.024 95.0879L656.68 95.5059C655.565 95.0879 654.555 94.3913 653.65 93.416C652.257 91.9531 651.421 91.1172 651.142 90.9082L650.202 85.3701C653.754 82.096 655.531 77.3939 655.531 71.2637C655.531 70.2884 655.182 69.2783 654.486 68.2334C653.789 67.1188 653.092 66.1087 652.396 65.2031C652.814 65.1335 653.267 65.0986 653.754 65.0986C658.352 65.0986 661.87 67.3626 664.308 71.8906C664.099 71.9603 663.855 72.0648 663.577 72.2041L663.368 72.8311L663.472 73.458C663.611 73.7367 663.82 73.9805 664.099 74.1895L663.263 76.4883L664.099 79.832C670.229 78.4388 677.37 76.4883 685.52 73.9805L685.102 46.708L684.057 46.29C681.062 46.9867 676.603 48.2754 670.682 50.1562C669.776 50.5742 668.557 51.4102 667.025 52.6641C665.492 53.918 664.169 54.7191 663.054 55.0674C661.452 54.3011 659.815 53.5348 658.143 52.7686C656.332 51.654 655.426 50.2607 655.426 48.5889L654.59 46.499C654.66 45.9417 655.043 45.1058 655.74 43.9912C656.436 42.8766 656.785 42.0755 656.785 41.5879C656.785 36.015 654.73 31.8701 650.62 29.1533C650.828 28.5264 652.431 28.0039 655.426 27.5859C657.586 28.0039 659.815 28.5264 662.114 29.1533C664.412 29.7106 665.945 31.1387 666.711 33.4375C666.433 33.4375 666.154 33.5072 665.875 33.6465C665.457 34.1341 665.248 34.6217 665.248 35.1094C665.248 35.5273 665.388 35.9453 665.666 36.3633L666.711 42.8418C673.259 40.125 679.355 38.3486 684.997 37.5127C684.997 25.8096 685.415 18.6344 686.251 15.9873L685.52 9.71777C683.5 8.60319 681.967 6.6875 680.922 3.9707L682.176 2.40332L684.579 3.03027L688.864 1.14941ZM774.614 0C775.311 0.48763 777.61 1.49772 781.511 3.03027C784.645 4.0752 786.561 5.53809 787.258 7.41895L785.168 10.2402C787.188 14.4896 791.368 19.4007 797.707 24.9736C803.489 30.1286 808.818 33.96 813.694 36.4678C817.038 38.1396 820.451 39.7767 823.934 41.3789C827.975 43.4688 831.214 45.4541 833.652 47.335C833.792 47.6136 833.861 47.8574 833.861 48.0664C833.861 48.4147 833.652 48.9023 833.234 49.5293C832.886 50.0866 832.712 50.5742 832.712 50.9922C830.552 51.1315 828.88 51.863 827.696 53.1865L826.233 52.9775L822.89 53.918C821.148 53.709 820.277 53.6045 820.277 53.6045C819.72 53.6045 818.71 53.709 817.247 53.918C815.854 54.127 814.774 54.1966 814.008 54.127C812.336 53.3607 809.654 50.7832 805.962 46.3945C805.474 45.8372 804.22 44.6878 802.2 42.9463C799.205 40.3688 796.697 37.7565 794.677 35.1094C792.517 32.4622 789.417 28.3174 785.377 22.6748C784.332 20.7939 782.486 17.9378 779.839 14.1064L776.599 15.9873C773.256 20.167 768.136 27.4466 761.239 37.8262L763.851 38.2441C766.081 37.5475 769.424 36.3633 773.883 34.6914C774.44 34.2734 775.311 33.7161 776.495 33.0195L781.197 31.1387C781.545 31.3477 783.635 31.7656 787.467 32.3926C790.253 32.8802 791.646 33.9948 791.646 35.7363C791.646 36.0846 791.612 36.4678 791.542 36.8857C791.263 37.0251 790.044 37.3734 787.885 37.9307C786.422 38.3486 785.481 39.0452 785.063 40.0205C783.809 40.0205 783.182 40.0205 783.182 40.0205C781.859 40.2992 779.908 40.6823 777.331 41.1699C775.868 41.3092 774.405 41.4486 772.942 41.5879C771.131 41.7272 769.738 42.18 768.763 42.9463C766.882 42.0407 763.991 40.8913 760.09 39.498C759.254 39.7767 758.522 40.4036 757.895 41.3789C757.338 42.2845 756.816 43.1553 756.328 43.9912C755.004 45.1755 753.158 46.917 750.79 49.2158C750.72 49.2855 750.198 50.1214 749.223 51.7236C747.969 53.6742 746.053 55.3809 743.475 56.8438C742.222 58.3763 739.156 59.6999 734.28 60.8145C747.794 49.1113 759.637 31.7656 769.807 8.77734C767.509 7.80208 765.976 6.54818 765.21 5.01562C765.558 4.45833 766.673 3.93587 768.554 3.44824C770.504 2.96061 771.723 2.19434 772.211 1.14941C772.42 1.21908 772.629 1.25391 772.838 1.25391C772.698 1.25391 773.291 0.835938 774.614 0ZM791.437 48.2754C794.154 48.2754 798.613 49.2158 804.812 51.0967C804.882 51.445 805.161 51.9674 805.648 52.6641C806.206 53.3607 806.484 54.0225 806.484 54.6494C806.484 54.9281 806.415 55.2067 806.275 55.4854C805.509 56.0426 804.325 56.5999 802.723 57.1572C801.12 57.7145 799.936 57.9235 799.17 57.7842C796.453 57.2965 793.736 56.8089 791.019 56.3213C787.745 55.6247 785.063 55.2764 782.974 55.2764C779.56 55.2764 776.112 56.1123 772.629 57.7842H773.151C774.266 57.7842 775.38 58.5156 776.495 59.9785C775.311 60.9538 773.709 62.5212 771.688 64.6807C771.131 65.4469 770.643 66.457 770.225 67.7109C769.459 69.8008 769.076 70.8457 769.076 70.8457C768.17 72.0299 767.056 74.0153 765.732 76.8018C772.071 75.7568 780.744 73.9108 791.751 71.2637C791.403 69.9401 790.671 68.3031 789.557 66.3525C788.442 64.402 787.745 62.974 787.467 62.0684H789.139C789.487 61.8594 789.974 61.7549 790.601 61.7549C793.318 61.7549 796.697 63.1481 800.737 65.9346C804.36 68.5817 806.972 71.2288 808.574 73.876C810.246 76.4535 811.082 79.9017 811.082 84.2207C811.082 84.2207 811.012 85.0566 810.873 86.7285L807.32 88.8184L804.499 88.1914L794.363 76.5928C793.179 76.6624 791.159 77.0456 788.303 77.7422C785.725 78.3691 783.67 78.6826 782.138 78.6826C779.142 79.5186 774.579 80.8073 768.449 82.5488C765.593 83.3848 761.483 84.7432 756.119 86.624C755.213 86.9027 754.099 87.5993 752.775 88.7139C751.521 89.8981 750.442 90.6644 749.536 91.0127L745.983 85.3701L745.774 82.2354L748.596 78.9961L751.939 81.5039H752.357C753.611 81.5736 755.388 81.0511 757.686 79.9365C762.284 71.5771 764.548 65.8301 764.478 62.6953V62.0684L761.239 59.9785C759.985 60.2572 758.731 60.5706 757.477 60.9189C755.945 61.3369 754.865 62.0335 754.238 63.0088L754.134 64.6807C753.716 64.8896 753.402 64.9941 753.193 64.9941C752.148 64.9941 751.103 64.7503 750.058 64.2627L746.819 58.3066L748.073 57.0527L750.999 58.3066C761.866 54.8236 772.28 52.1068 782.242 50.1562C782.521 50.1562 784.088 49.8079 786.944 49.1113C789.034 48.554 790.532 48.2754 791.437 48.2754ZM897.459 26.4365C903.172 27.9691 908.013 31.1735 911.984 36.0498C915.954 40.9261 917.94 46.29 917.94 52.1416C917.94 52.9079 917.731 54.0573 917.313 55.5898C916.895 57.61 916.651 58.7943 916.581 59.1426C914.004 61.0234 912.088 61.929 910.834 61.8594H910.521C910.381 61.6504 909.302 60.2223 907.282 57.5752C906.028 55.973 905.331 54.2663 905.192 52.4551C905.61 51.4798 905.819 50.6439 905.819 49.9473C905.819 38.8014 903.032 30.9645 897.459 26.4365ZM834.973 30.6162C836.714 31.2432 838.491 31.8353 840.302 32.3926C842.462 33.0892 844.064 33.8903 845.109 34.7959C846.572 35.8408 847.547 37.3385 848.034 39.2891C848.174 41.1003 848.522 43.8171 849.079 47.4395C851.1 57.7493 854.339 64.2627 858.797 66.9795C860.19 63.6357 862.35 58.8639 865.276 52.6641C865.345 54.0573 865.38 55.4157 865.38 56.7393C865.38 70.8109 864.788 80.3893 863.604 85.4746C858.937 84.778 855.419 83.4196 853.05 81.3994C850.751 79.3096 848.696 75.931 846.885 71.2637C845.492 67.6413 843.855 61.7549 841.974 53.6045C841.695 52.1416 841.242 50.0518 840.616 47.335C839.919 45.3148 838.874 42.3193 837.481 38.3486C836.714 36.7464 835.879 34.1689 834.973 30.6162Z" fill="#251607"/>
</svg>
