<svg width="167" height="31" viewBox="0 0 167 31" fill="none" xmlns="http://www.w3.org/2000/svg">
<path d="M20.3271 2.96289C20.7601 2.96289 21.193 3.07682 21.626 3.30469C22.1956 3.55534 22.5944 3.70345 22.8223 3.74902C23.5059 3.93132 23.973 4.05664 24.2236 4.125C24.8389 4.30729 25.2604 4.52376 25.4883 4.77441C25.944 4.88835 26.3542 5.25293 26.7188 5.86816L26.5137 6.3125C25.7617 6.42643 25.2262 6.69987 24.9072 7.13281C24.7021 7.38346 24.3376 9.71908 23.8135 14.1396C23.2438 19.1527 22.8792 22.0465 22.7197 22.8213C22.6058 23.391 22.583 23.8239 22.6514 24.1201C22.5146 24.234 22.3551 24.4391 22.1729 24.7354C21.8083 25.4417 21.4209 25.8975 21.0107 26.1025C20.3955 26.3076 19.7917 26.5127 19.1992 26.7178L17.9004 25.1797C17.3763 25.1341 16.875 25.1113 16.3965 25.1113C15.3711 25.1113 13.9355 25.248 12.0898 25.5215C10.2669 25.7949 8.85417 26.0684 7.85156 26.3418C6.71224 26.6836 5.83496 27.1735 5.21973 27.8115C4.74121 27.6292 4.19434 27.071 3.5791 26.1367C3.32845 25.8633 3.06641 25.5785 2.79297 25.2822C2.54232 24.9632 2.41699 24.6214 2.41699 24.2568L3.06641 23.9834L4.98047 24.5303C6.96289 24.1885 9.94792 23.6872 13.9355 23.0264C15.5534 22.7985 16.4079 22.6846 16.499 22.6846C16.499 22.6846 17.0687 22.7301 18.208 22.8213C18.5954 21.2946 18.8574 19.4033 18.9941 17.1475C19.0853 15.2334 19.1764 13.3193 19.2676 11.4053C19.2676 11.4053 19.4157 9.92415 19.7119 6.96191L19.4043 6.03906C18.6296 6.03906 17.6953 6.15299 16.6016 6.38086C15.6901 6.58594 14.7786 6.79102 13.8672 6.99609C12.1354 7.26953 10.3923 7.53158 8.6377 7.78223C6.83757 8.07845 5.11719 8.56836 3.47656 9.25195C1.97266 8.31771 0.958659 7.12142 0.43457 5.66309C0.50293 5.59473 0.696615 5.52637 1.01562 5.45801C1.31185 5.41243 1.51693 5.41243 1.63086 5.45801L3.30566 6.03906C3.87533 6.03906 4.68424 5.99349 5.73242 5.90234L16.6357 4.125C16.7952 4.10221 17.0573 4.03385 17.4219 3.91992C17.9004 3.71484 18.3789 3.50977 18.8574 3.30469C19.3587 3.07682 19.8486 2.96289 20.3271 2.96289ZM54.9854 1.83496C55.7601 1.90332 56.7057 2.21094 57.8223 2.75781C59.4401 3.48698 60.363 3.88574 60.5908 3.9541C60.6136 4.02246 60.9098 4.28451 61.4795 4.74023C61.8441 5.01367 62.0264 5.37826 62.0264 5.83398C61.9124 6.06185 61.8099 6.32389 61.7188 6.62012L60.8643 6.92773L59.1895 6.4834C58.7793 6.62012 58.3919 7.01888 58.0273 7.67969C57.6172 8.40885 57.2754 8.86458 57.002 9.04688C56.6146 9.66211 55.931 10.3913 54.9512 11.2344C53.9941 12.0775 53.151 12.6927 52.4219 13.0801C51.7839 13.3535 50.9066 13.832 49.79 14.5156C49.4255 14.8574 49.2432 15.4385 49.2432 16.2588C49.2432 16.5778 49.1976 16.9652 49.1064 17.4209C48.9925 18.1045 48.9242 18.5033 48.9014 18.6172C48.9014 18.7995 48.89 19.0729 48.8672 19.4375C48.7533 19.7793 48.6051 20.292 48.4229 20.9756C47.6025 24.3936 46.3835 26.9001 44.7656 28.4951C44.1048 29.1559 43.1022 29.7028 41.7578 30.1357C43.1022 28.5179 44.0934 26.5583 44.7314 24.2568C45.1872 22.6162 45.5404 20.4059 45.791 17.626C45.8138 17.4665 45.9049 16.7715 46.0645 15.541C46.1784 14.6296 46.2354 13.946 46.2354 13.4902C46.2354 12.875 45.8708 12.3851 45.1416 12.0205C44.2529 11.5192 43.7288 11.166 43.5693 10.9609L45.9277 10.3115C46.5658 10.4482 47.1924 10.5736 47.8076 10.6875C48.6279 10.8926 49.1976 11.1546 49.5166 11.4736C49.5166 11.4964 49.5166 11.5534 49.5166 11.6445C49.5166 11.7585 49.4368 11.9635 49.2773 12.2598C49.1406 12.556 49.0723 12.7497 49.0723 12.8408C49.0723 12.8408 49.0837 12.8978 49.1064 13.0117C51.4762 10.3457 53.151 7.58854 54.1309 4.74023L53.5498 4.60352L47.124 5.9707C46.805 6.08464 46.3265 6.23275 45.6885 6.41504C44.2985 6.75684 42.6351 7.22396 40.6982 7.81641C40.2197 7.88477 39.6501 8.02148 38.9893 8.22656C38.693 8.45443 38.5449 8.77344 38.5449 9.18359C38.4082 9.32031 38.1917 9.47982 37.8955 9.66211C37.3714 9.52539 37.0068 9.29753 36.8018 8.97852C36.6195 8.63672 36.141 7.44043 35.3662 5.38965L37.3486 6.07324C40.2881 5.38965 43.2389 4.71745 46.2012 4.05664C49.7103 3.25911 52.6383 2.51855 54.9854 1.83496ZM85.4053 0.262695C85.5192 0.308268 86.123 0.638672 87.2168 1.25391C88.2194 1.80078 88.7777 2.11979 88.8916 2.21094C89.5068 2.68945 89.8145 3.22493 89.8145 3.81738L89.5068 4.53516C88.2764 4.76302 87.5358 4.84277 87.2852 4.77441C86.3737 5.02507 85.0407 5.74284 83.2861 6.92773C83.5596 7.38346 84.3457 7.72526 85.6445 7.95312C86.8522 8.1582 87.5586 8.64811 87.7637 9.42285C87.6953 9.6735 87.4902 10.0039 87.1484 10.4141C86.8294 10.8242 86.6699 11.1546 86.6699 11.4053C86.6699 11.542 86.6927 11.6673 86.7383 11.7812L87.1484 11.918C87.4447 11.8268 87.9915 11.7699 88.7891 11.7471C89.5866 11.7243 90.2246 11.599 90.7031 11.3711C91.9336 11.599 93.1527 11.8154 94.3604 12.0205C95.7503 12.3623 96.7529 12.9775 97.3682 13.8662C97.3682 14.4814 97.1517 14.9714 96.7188 15.3359C96.2858 15.6777 95.7503 15.8486 95.1123 15.8486L94.3604 15.6094C93.8135 15.4271 93.1413 15.2562 92.3438 15.0967C90.8626 14.7549 89.1309 14.584 87.1484 14.584C87.1484 14.584 86.9092 14.6751 86.4307 14.8574C86.4307 15.1764 86.3281 15.598 86.123 16.1221C85.8952 16.7601 85.7699 17.1816 85.7471 17.3867C85.7471 17.7741 85.7015 18.3096 85.6104 18.9932C84.7217 23.2087 83.6621 26.3532 82.4316 28.4268C82.1126 28.9736 81.4518 29.6117 80.4492 30.3408L79.2188 30.6826C80.2441 28.4723 81.0075 26.2165 81.5088 23.915C82.4202 19.8363 82.876 17.1475 82.876 15.8486C82.876 15.8486 82.8418 15.6549 82.7734 15.2676C81.862 15.4043 80.5062 15.6322 78.7061 15.9512C78.1364 16.1107 77.1908 16.4069 75.8691 16.8398C74.4564 17.2956 73.5677 17.6488 73.2031 17.8994C72.5879 18.264 72.2461 18.7653 72.1777 19.4033L70.9814 19.5059C70.1611 18.3438 69.7282 16.6576 69.6826 14.4473C69.7738 14.3789 69.8535 14.3447 69.9219 14.3447C70.0358 14.3447 70.2181 14.4814 70.4688 14.7549C70.7878 15.0967 70.9587 15.2676 70.9814 15.2676C71.027 15.2448 73.0208 14.7549 76.9629 13.7979C79.3783 13.1826 81.3835 12.7725 82.9785 12.5674L82.876 10.3799C82.4886 10.152 82.1468 9.87858 81.8506 9.55957C81.5771 9.24056 81.3037 8.92155 81.0303 8.60254H79.7314C79.6859 8.62533 79.2757 8.71647 78.501 8.87598C77.4756 9.08105 76.6553 9.18359 76.04 9.18359C76.04 9.18359 75.5387 9.09245 74.5361 8.91016C76.0628 8.24935 77.6579 7.26953 79.3213 5.9707C80.1872 5.26432 81.5771 3.99967 83.4912 2.17676C83.4456 1.56152 83.4229 1.25391 83.4229 1.25391C83.4229 1.25391 83.4456 1.0944 83.4912 0.775391L84.0381 1.01465L85.4053 0.262695ZM124.746 11.8154H127.275L129.736 12.5332L130.625 13.3193C130.693 13.8206 130.887 14.2308 131.206 14.5498C131.069 14.8005 130.864 15.0169 130.591 15.1992C130.317 15.3815 129.987 15.4157 129.6 15.3018L128.95 15.5068C128.654 15.5068 128.312 15.484 127.925 15.4385C127.56 15.3701 127.127 15.2904 126.626 15.1992C126.125 15.1081 125.646 15.0397 125.19 14.9941C124.757 14.9486 124.336 14.9258 123.926 14.9258H122.729L121.26 14.8574C121.055 14.8574 120.872 14.8574 120.713 14.8574C120.576 14.8574 120.439 14.8688 120.303 14.8916C120.166 14.9144 119.984 14.9372 119.756 14.96C119.551 14.9827 119.38 15.0055 119.243 15.0283C119.129 15.0511 118.993 15.0625 118.833 15.0625C118.696 15.0625 118.537 15.0739 118.354 15.0967C118.172 15.0967 117.967 15.0967 117.739 15.0967C117.534 15.0967 117.352 15.1195 117.192 15.165C117.056 15.1878 116.919 15.2106 116.782 15.2334C116.646 15.2334 116.486 15.2562 116.304 15.3018C116.121 15.3245 115.973 15.3473 115.859 15.3701C115.768 15.3701 115.632 15.3929 115.449 15.4385C115.267 15.4613 115.096 15.4727 114.937 15.4727C114.8 15.4727 114.618 15.4727 114.39 15.4727C114.185 15.4727 114.002 15.4727 113.843 15.4727C113.706 15.4727 113.558 15.484 113.398 15.5068C113.239 15.5296 113.079 15.5524 112.92 15.5752C112.76 15.5752 112.601 15.598 112.441 15.6436C112.305 15.6891 112.145 15.7347 111.963 15.7803C111.803 15.8031 111.632 15.8372 111.45 15.8828C111.268 15.9284 111.097 15.9626 110.938 15.9854C110.778 15.9854 110.607 16.0195 110.425 16.0879C110.265 16.1335 110.117 16.179 109.98 16.2246C109.844 16.2702 109.718 16.3271 109.604 16.3955C109.513 16.4411 109.377 16.5322 109.194 16.6689C109.035 16.8057 108.898 16.9082 108.784 16.9766C108.67 17.0449 108.534 17.1133 108.374 17.1816C108.237 17.25 108.078 17.3184 107.896 17.3867L107.109 17.1133C106.904 16.9993 106.722 16.8854 106.562 16.7715C106.403 16.6576 106.221 16.5436 106.016 16.4297C105.811 16.3158 105.617 16.2018 105.435 16.0879C105.275 15.9512 105.138 15.8372 105.024 15.7461C104.933 15.6322 104.842 15.5296 104.751 15.4385C104.66 15.3473 104.58 15.2676 104.512 15.1992C104.466 15.1081 104.409 15.0283 104.341 14.96C104.272 14.8916 104.193 14.8232 104.102 14.7549C104.01 14.6637 103.919 14.584 103.828 14.5156C103.737 14.4473 103.657 14.3903 103.589 14.3447C103.543 14.2764 103.509 14.2194 103.486 14.1738C103.464 14.1283 103.452 14.0713 103.452 14.0029L105.332 14.208C105.788 14.0713 106.266 13.9688 106.768 13.9004C107.269 13.8092 107.782 13.7295 108.306 13.6611C108.853 13.57 109.491 13.4788 110.22 13.3877C110.949 13.2738 111.564 13.1826 112.065 13.1143C112.59 13.0231 113.114 12.9434 113.638 12.875C114.185 12.7839 114.709 12.7041 115.21 12.6357C115.734 12.5674 116.247 12.5104 116.748 12.4648C117.249 12.3965 117.956 12.3053 118.867 12.1914C119.801 12.0775 120.815 11.9863 121.909 11.918C123.003 11.8496 123.949 11.8154 124.746 11.8154ZM152.295 1.01465C152.386 1.01465 153.115 1.24251 154.482 1.69824C155.85 2.15397 156.579 2.39323 156.67 2.41602C157.194 2.68945 157.559 3.06543 157.764 3.54395C157.673 3.9541 157.308 4.51237 156.67 5.21875C156.009 6.01628 155.599 6.6543 155.439 7.13281C155.166 7.95312 154.688 9.13802 154.004 10.6875C153.708 11.5078 153.263 12.6813 152.671 14.208C152.306 14.9372 151.794 16.0423 151.133 17.5234C150.381 19.3691 149.777 21.0781 149.321 22.6504C150.529 22.5137 152.284 22.0921 154.585 21.3857C156.909 20.6794 158.675 20.2578 159.883 20.1211C159.632 19.2552 159.188 18.321 158.55 17.3184C157.935 16.4753 157.331 15.6436 156.738 14.8232C157.878 14.8232 159.211 15.3245 160.737 16.3271C163.608 18.1956 165.488 20.4515 166.377 23.0947C166.331 23.5732 166.309 23.8125 166.309 23.8125C166.309 23.8125 166.388 24.2113 166.548 25.0088C166.388 25.1455 166.149 25.8063 165.83 26.9912C165.579 27.9482 165.067 28.4495 164.292 28.4951C163.472 27.9938 162.754 27.1963 162.139 26.1025C161.683 25.0999 161.216 24.0973 160.737 23.0947C160.19 23.1403 159.119 23.4593 157.524 24.0518C156.772 24.2113 155.701 24.4391 154.312 24.7354C153.628 24.9632 152.591 25.3164 151.201 25.7949C150.176 26.0911 149.15 26.376 148.125 26.6494C146.963 27.014 145.983 27.4128 145.186 27.8457C144.684 28.0736 144.16 28.3128 143.613 28.5635C143.066 28.8369 142.713 29.2471 142.554 29.7939L141.87 29.623C141.597 29.3496 141.266 28.9281 140.879 28.3584C140.902 28.1533 140.902 27.8913 140.879 27.5723C140.719 27.2533 140.537 26.752 140.332 26.0684C140.309 25.8633 140.264 25.6126 140.195 25.3164L140.845 23.6074L141.733 24.0859L142.246 24.7354C142.428 24.7581 142.611 24.7695 142.793 24.7695C144.115 24.7695 145.311 23.9492 146.382 22.3086C147.179 21.0553 147.909 19.3008 148.569 17.0449C149.002 15.4954 149.424 13.9346 149.834 12.3623C150.495 10.5166 151.383 7.70247 152.5 3.91992C152.409 3.80599 151.987 3.56673 151.235 3.20215C150.711 2.92871 150.449 2.56413 150.449 2.1084L152.295 1.01465Z" fill="#251607"/>
</svg>
